<?xml version="1.0" encoding="UTF-8"?>
<!-- Generated by Pixelmator Pro 3.5.7 -->
<svg width="200" height="200" viewBox="0 0 200 200" xmlns="http://www.w3.org/2000/svg">
    <g id="-">
        <path id="path1" fill="#000000" stroke="none" opacity="0" d="M 5 4.886002 L 194.550995 4.886002 L 194.550995 197 L 5 197 Z"/>
        <path id="path2" fill="#a2845e" stroke="none" d="M 99.775398 197 C 106.806999 197 111.420998 194.803009 111.420998 191.287003 C 111.420998 186.673004 110.102997 173.563004 110.102997 163.162003 C 110.102997 150.345001 120.356003 128.738998 133.686996 103.250305 L 123.945 97.976799 C 113.764999 116.433998 109.956001 123.831001 105.780998 133.132996 L 105.415001 98.123299 L 93.623001 97.464104 L 93.769501 133.206009 C 89.667999 123.904999 85.273399 115.701004 76.264603 100.174103 L 68.7939 110.135002 C 79.121101 128.738998 89.448196 150.345001 89.448196 163.162003 C 89.448196 173.563004 88.129898 186.673004 88.129898 191.287003 C 88.129898 194.803009 92.744102 197 99.775398 197 Z"/>
        <path id="path3" fill="#28cd41" stroke="none" d="M 5 120.681999 C 5 138.333008 16.8652 150.565002 34.003899 150.565002 C 39.423801 150.565002 45.209999 149.173004 51.435501 146.097 C 55.976601 150.197998 67.109398 155.985001 80.073196 156.496994 C 77.509804 144.852005 69.526398 128.738998 64.692398 119.875999 C 75.971703 118.850998 82.343803 112.772003 85.273399 104.422104 C 89.301804 107.352005 93.916 108.889999 99.775398 108.889999 C 105.635002 108.889999 110.249001 107.352005 114.277 104.422104 C 117.207001 112.772003 123.579002 118.850998 134.858002 119.875999 C 130.024002 128.738998 122.041 144.852005 119.477997 156.496994 C 132.440994 155.985001 143.574005 150.197998 148.115005 146.097 C 154.341003 149.173004 160.126999 150.565002 165.546997 150.565002 C 182.686005 150.565002 194.550995 138.333008 194.550995 120.681999 C 194.550995 111.746002 190.889008 102.298103 182.466003 93.875305 C 189.130997 86.917198 191.841003 78.6409 191.841003 70.511002 C 191.841003 53.006104 178.363998 36.819595 161.518997 34.842102 C 160.785995 17.923096 141.962997 5.83815 123.945 5.83815 C 114.717003 5.83815 106.147003 8.694595 99.775398 15.286407 C 93.403297 8.694595 84.834 5.83815 75.605499 5.83815 C 57.587898 5.83815 38.764599 17.923096 38.0322 34.842102 C 21.186501 36.819595 7.63672 53.006104 7.63672 70.511002 C 7.63672 78.6409 10.41992 86.917198 17.084999 93.875305 C 8.66211 102.298103 5 111.746002 5 120.681999 Z"/>
    </g>
</svg>
